<svg width="815" height="802" style="clip-rule:evenodd;fill-rule:evenodd;image-rendering:optimizeQuality;shape-rendering:geometricPrecision;text-rendering:geometricPrecision" version="1.1" xmlns="http://www.w3.org/2000/svg">
 <g transform="translate(.5 .5)" style="clip-rule:evenodd;fill-rule:evenodd;image-rendering:optimizeQuality;shape-rendering:geometricPrecision">
  <path d="m-0.5-0.5h815v802h-815v-802z" fill="#182838"/>
 </g>
 <g transform="matrix(1.0433 0 0 1.0433 -45.784 -15.046)" style="clip-rule:evenodd;fill-rule:evenodd;image-rendering:optimizeQuality;shape-rendering:geometricPrecision;stroke-width:.95848">
  <circle cx="290.67" cy="40.998" r="6.6056" style="fill:#fff;stroke-width:0"/>
  <circle cx="141.9" cy="149.24" r="9.0521" style="clip-rule:evenodd;fill-rule:evenodd;fill:#fff;image-rendering:optimizeQuality;shape-rendering:geometricPrecision;stroke-width:0"/>
  <circle cx="98.105" cy="201.35" r="5.3823" style="clip-rule:evenodd;fill-rule:evenodd;fill:#fff;image-rendering:optimizeQuality;shape-rendering:geometricPrecision;stroke-width:0"/>
  <circle cx="111.07" cy="628.75" r="9.0521" style="clip-rule:evenodd;fill-rule:evenodd;fill:#fff;image-rendering:optimizeQuality;shape-rendering:geometricPrecision;stroke-width:0"/>
  <circle cx="89.557" cy="592.7" r="7.5842" style="clip-rule:evenodd;fill-rule:evenodd;fill:#fff;image-rendering:optimizeQuality;shape-rendering:geometricPrecision;stroke-width:0"/>
  <circle cx="207.95" cy="708.51" r="7.5842" style="clip-rule:evenodd;fill-rule:evenodd;fill:#fff;image-rendering:optimizeQuality;shape-rendering:geometricPrecision;stroke-width:0"/>
  <path d="m147.11 651.02c-0.47239 0.10594-0.78143 0.22515-1.117 0.42822-0.52095 0.31348-1.064 0.94921-1.2759 1.4922-0.0839 0.21193-1.9381 5.8055-4.5341 13.682-0.69754 2.1103-1.2891 3.863-1.32 3.8939-0.0265 0.0308-0.53419 0.2119-1.1302 0.40615-0.596 0.19426-4.459 1.4437-8.5869 2.7858-4.1279 1.3377-7.6289 2.49-7.779 2.5606-0.9536 0.44152-1.5805 1.2538-1.8675 2.4238-0.13244 0.55627-0.12362 0.74609 0.0971 1.5275 0.25165 0.88738 0.84766 1.5893 1.6909 1.9911 0.25606 0.11918 6.3397 2.0926 16.048 5.2051 0.88739 0.28254 1.6379 0.53862 1.6688 0.56952 0.0265 0.0263 0.47681 1.3642 0.99776 2.9624 4.0837 12.6 4.6842 14.419 4.821 14.679 0.3267 0.62252 0.81233 1.0772 1.4966 1.4128 0.4459 0.21632 1.0993 0.39732 1.4304 0.39732 0.27813 0 1.0596-0.21632 1.3951-0.38408 0.40617-0.20307 0.66664-0.39732 0.96685-0.71962 0.37968-0.41497 0.56952-0.77702 0.8609-1.6555 0.24282-0.72406 4.0043-12.313 5.0153-15.452 0.2384-0.72845 0.45472-1.3509 0.48121-1.3818 0.0309-0.0308 1.4039-0.49448 3.0551-1.0287 12.556-4.0705 14.322-4.6533 14.591-4.7901 0.83883-0.43708 1.4834-1.3245 1.713-2.3487 0.11038-0.49444 0.11479-0.63573 0.0265-1.0684-0.24724-1.2009-0.82558-1.9867-1.8101-2.4547-0.16777-0.0839-2.2339-0.77259-4.5914-1.5364-10.733-3.4833-12.962-4.2074-12.984-4.2338-0.0309-0.0308-0.71962-2.1324-3.682-11.267-1.0684-3.3023-2.0132-6.1455-2.0926-6.3132-0.46797-0.98448-1.2538-1.5629-2.4547-1.8101-0.41499-0.0839-0.67547-0.0794-1.1302 0.0263z" style="fill:#fff"/>
  <path d="m254.49 714.8c-0.2699 0.0605-0.44647 0.12864-0.63817 0.24467-0.29765 0.1791-0.60791 0.54233-0.72898 0.85258-0.0479 0.12109-1.1074 3.317-2.5905 7.817-0.39854 1.2057-0.73655 2.2071-0.75421 2.2248-0.0151 0.0176-0.30521 0.12107-0.64574 0.23206-0.34052 0.11099-2.5476 0.82484-4.9061 1.5917-2.3585 0.7643-4.3588 1.4226-4.4445 1.463-0.54484 0.25226-0.90303 0.71637-1.067 1.3848-0.0757 0.31782-0.0706 0.42628 0.0555 0.87276 0.14378 0.507 0.48431 0.90806 0.96609 1.1376 0.1463 0.0681 3.6222 1.1956 9.169 2.9739 0.50701 0.16143 0.93582 0.30774 0.95348 0.32539 0.0151 0.015 0.27242 0.77942 0.57007 1.6926 2.3332 7.199 2.6763 8.2382 2.7545 8.3871 0.18666 0.35568 0.46413 0.61548 0.8551 0.80718 0.25477 0.1236 0.62809 0.22701 0.81727 0.22701 0.15891 0 0.60538-0.12359 0.79709-0.21944 0.23206-0.11603 0.38088-0.22701 0.55241-0.41116 0.21693-0.23709 0.32539-0.44395 0.49187-0.94589 0.13874-0.41369 2.2878-7.0351 2.8655-8.8285 0.13621-0.4162 0.2598-0.77186 0.27494-0.78951 0.0176-0.0176 0.80213-0.28252 1.7455-0.58773 7.1738-2.3257 8.1828-2.6586 8.3366-2.7368 0.47927-0.24973 0.84754-0.75673 0.97871-1.3419 0.0631-0.2825 0.0656-0.36323 0.0151-0.61042-0.14126-0.68611-0.4717-1.1351-1.0342-1.4025-0.0959-0.0479-1.2764-0.44142-2.6233-0.87781-6.132-1.9902-7.4058-2.4039-7.4185-2.419-0.0177-0.0176-0.41115-1.2183-2.1037-6.4372-0.61043-1.8868-1.1502-3.5112-1.1956-3.6071-0.26737-0.56248-0.71636-0.89294-1.4025-1.0342-0.2371-0.0479-0.38593-0.0454-0.64574 0.015z" style="clip-rule:evenodd;fill-rule:evenodd;fill:#fff;image-rendering:optimizeQuality;shape-rendering:geometricPrecision"/>
  <circle cx="315.72" cy="754.08" r="6.3732" style="clip-rule:evenodd;fill-rule:evenodd;fill:#fff;image-rendering:optimizeQuality;shape-rendering:geometricPrecision;stroke-width:0"/>
  <circle cx="365.71" cy="766.71" r="6.3732" style="clip-rule:evenodd;fill-rule:evenodd;fill:#fff;image-rendering:optimizeQuality;shape-rendering:geometricPrecision;stroke-width:0"/>
  <circle cx="542.86" cy="742.84" r="8.6222" style="clip-rule:evenodd;fill-rule:evenodd;fill:#fff;image-rendering:optimizeQuality;shape-rendering:geometricPrecision;stroke-width:0"/>
  <circle cx="705.13" cy="629.7" r="4.9893" style="clip-rule:evenodd;fill-rule:evenodd;fill:#fff;image-rendering:optimizeQuality;shape-rendering:geometricPrecision;stroke-width:0"/>
  <circle cx="733.5" cy="579.88" r="8.6222" style="clip-rule:evenodd;fill-rule:evenodd;fill:#fff;image-rendering:optimizeQuality;shape-rendering:geometricPrecision;stroke-width:0"/>
  <circle cx="756.33" cy="530.75" r="8.6222" style="clip-rule:evenodd;fill-rule:evenodd;fill:#fff;image-rendering:optimizeQuality;shape-rendering:geometricPrecision;stroke-width:0"/>
  <circle cx="783.32" cy="365.36" r="7.5842" style="clip-rule:evenodd;fill-rule:evenodd;fill:#fff;image-rendering:optimizeQuality;shape-rendering:geometricPrecision;stroke-width:0"/>
  <circle cx="763.25" cy="298.24" r="7.5842" style="clip-rule:evenodd;fill-rule:evenodd;fill:#fff;image-rendering:optimizeQuality;shape-rendering:geometricPrecision;stroke-width:0"/>
  <path d="m749.1 226.1c-0.2699 0.0605-0.44647 0.12864-0.63817 0.24467-0.29765 0.1791-0.60791 0.54233-0.72898 0.85258-0.0479 0.12109-1.1074 3.317-2.5905 7.817-0.39854 1.2057-0.73655 2.2071-0.75421 2.2248-0.0151 0.0176-0.30521 0.12107-0.64574 0.23206-0.34052 0.11099-2.5476 0.82484-4.9061 1.5917-2.3585 0.7643-4.3588 1.4226-4.4445 1.463-0.54484 0.25226-0.90303 0.71637-1.067 1.3848-0.0757 0.31782-0.0706 0.42628 0.0555 0.87276 0.14378 0.507 0.48431 0.90806 0.96609 1.1376 0.1463 0.0681 3.6222 1.1956 9.169 2.9739 0.50701 0.16143 0.93582 0.30774 0.95348 0.32539 0.0151 0.015 0.27242 0.77942 0.57007 1.6926 2.3332 7.199 2.6763 8.2382 2.7545 8.3871 0.18666 0.35568 0.46413 0.61548 0.8551 0.80718 0.25477 0.1236 0.62809 0.22701 0.81727 0.22701 0.15891 0 0.60538-0.12359 0.79709-0.21944 0.23206-0.11603 0.38088-0.22701 0.55241-0.41116 0.21693-0.23709 0.32539-0.44395 0.49187-0.94589 0.13874-0.41369 2.2878-7.0351 2.8655-8.8285 0.13621-0.4162 0.2598-0.77186 0.27494-0.78951 0.0176-0.0176 0.80213-0.28252 1.7455-0.58773 7.1738-2.3257 8.1828-2.6586 8.3366-2.7368 0.47927-0.24973 0.84754-0.75673 0.97871-1.3419 0.0631-0.2825 0.0656-0.36323 0.0151-0.61042-0.14126-0.68611-0.4717-1.1351-1.0342-1.4025-0.0959-0.0479-1.2764-0.44142-2.6233-0.87781-6.132-1.9902-7.4058-2.4039-7.4185-2.419-0.0177-0.0176-0.41115-1.2183-2.1037-6.4372-0.61043-1.8868-1.1502-3.5112-1.1956-3.6071-0.26737-0.56248-0.71636-0.89294-1.4025-1.0342-0.2371-0.0479-0.38593-0.0454-0.64574 0.015z" style="clip-rule:evenodd;fill-rule:evenodd;fill:#fff;image-rendering:optimizeQuality;shape-rendering:geometricPrecision"/>
  <circle cx="730.73" cy="182.68" r="7.5842" style="clip-rule:evenodd;fill-rule:evenodd;fill:#fff;image-rendering:optimizeQuality;shape-rendering:geometricPrecision;stroke-width:0"/>
  <circle cx="705.24" cy="134.36" r="6.3732" style="clip-rule:evenodd;fill-rule:evenodd;fill:#fff;image-rendering:optimizeQuality;shape-rendering:geometricPrecision;stroke-width:0"/>
  <path d="m640.62 31.891c-0.71537 0.16043-1.1834 0.34096-1.6915 0.64848-0.78891 0.47472-1.6113 1.4375-1.9322 2.2598-0.12705 0.32094-2.935 8.7917-6.8662 20.719-1.0563 3.1958-1.9522 5.85-1.999 5.8968-0.0401 0.04664-0.80896 0.3209-1.7115 0.61506-0.90257 0.29418-6.7526 2.1863-13.004 4.2187-6.2511 2.0258-11.553 3.7707-11.78 3.8777-1.4441 0.66862-2.3935 1.8987-2.8281 3.6705-0.20056 0.8424-0.18721 1.1299 0.14705 2.3133 0.38109 1.3438 1.2837 2.4068 2.5606 3.0152 0.38777 0.18048 9.6007 3.169 24.303 7.8824 1.3438 0.42787 2.4804 0.81567 2.5272 0.86246 0.0401 0.03983 0.72207 2.0659 1.511 4.4861 6.1843 19.081 7.0936 21.836 7.3008 22.23 0.49474 0.94272 1.2302 1.6313 2.2664 2.1394 0.67526 0.32759 1.6648 0.60169 2.1662 0.60169 0.42119 0 1.6046-0.32759 2.1127-0.58164 0.61509-0.30753 1.0095-0.60169 1.4642-1.0898 0.57497-0.62842 0.86246-1.1767 1.3037-2.5071 0.36772-1.0965 6.064-18.647 7.595-23.4 0.36103-1.1031 0.68861-2.0458 0.72873-2.0926 0.0468-0.04664 2.1261-0.74883 4.6265-1.5578 19.014-6.1642 21.688-7.0468 22.096-7.254 1.2703-0.6619 2.2464-2.0057 2.5941-3.5568 0.16716-0.74876 0.17383-0.96273 0.0401-1.6179-0.37441-1.8185-1.2502-3.0086-2.7412-3.7173-0.25406-0.12706-3.383-1.17-6.9531-2.3266-16.253-5.275-19.629-6.3715-19.663-6.4116-0.0468-0.04664-1.0898-3.2292-5.5759-17.062-1.6179-5.0009-3.0487-9.3065-3.169-9.5606-0.70868-1.4909-1.8987-2.3667-3.7173-2.7411-0.62844-0.12706-1.0229-0.12024-1.7115 0.03983z" style="clip-rule:evenodd;fill-rule:evenodd;fill:#fff;image-rendering:optimizeQuality;shape-rendering:geometricPrecision"/>
  <path d="m168.39 70.793c-0.42653 0.0956-0.70557 0.20329-1.0085 0.38666-0.47039 0.28303-0.96069 0.85705-1.152 1.3473-0.0757 0.19136-1.75 5.2419-4.0939 12.353-0.62982 1.9054-1.164 3.4879-1.1919 3.5158-0.0239 0.02781-0.48233 0.19133-1.0205 0.36673-0.53812 0.1754-4.0261 1.3035-7.7532 2.5153-3.7271 1.2078-6.8882 2.2482-7.0238 2.312-0.86101 0.39865-1.4271 1.1321-1.6862 2.1885-0.11963 0.50226-0.11157 0.67367 0.0877 1.3792 0.22722 0.80122 0.76536 1.435 1.5267 1.7978 0.23119 0.10762 5.7242 1.8895 14.49 4.6998 0.80124 0.25511 1.4789 0.48633 1.5068 0.51422 0.0239 0.0237 0.43051 1.2317 0.90088 2.6748 3.6873 11.377 4.2294 13.019 4.353 13.254 0.29498 0.56208 0.73347 0.97265 1.3513 1.2756 0.40261 0.19534 0.99257 0.35875 1.2915 0.35875 0.25112 0 0.9567-0.19531 1.2597-0.34678 0.36672-0.18336 0.60191-0.35875 0.87297-0.64976 0.34283-0.37468 0.51422-0.70158 0.77731-1.4948 0.21926-0.65376 3.6155-11.118 4.5284-13.952 0.21526-0.65773 0.41057-1.2198 0.4345-1.2477 0.0278-0.0278 1.2676-0.44647 2.7585-0.9288 11.337-3.6753 12.931-4.2015 13.174-4.3251 0.7574-0.39465 1.3394-1.1959 1.5467-2.1207 0.0997-0.44644 0.10368-0.57402 0.0239-0.96466-0.22323-1.0843-0.74544-1.7938-1.6344-2.2164-0.15154-0.07574-2.017-0.69758-4.1457-1.3872-9.6905-3.1451-11.704-3.7989-11.724-3.8228-0.028-0.02781-0.64975-1.9254-3.3245-10.173-0.96467-2.9817-1.8177-5.5489-1.8895-5.7003-0.42254-0.8889-1.1321-1.4111-2.2164-1.6343-0.3747-0.07569-0.60989-0.07175-1.0205 0.0237z" style="clip-rule:evenodd;fill-rule:evenodd;fill:#fff;image-rendering:optimizeQuality;shape-rendering:geometricPrecision"/>
 </g>
 <g transform="translate(1150.5 -577.82)">
  <path d="m-737 1265c130.22-31.488 243.22-138.36 243.22-138.36" style="fill:none;stroke-linecap:round;stroke-linejoin:round;stroke-width:15;stroke:#9ec4db"/>
  <path d="m-802.43 1257.4c173.01-48.67 313.87-175.3 313.87-175.3" style="clip-rule:evenodd;fill:none;image-rendering:optimizeQuality;shape-rendering:geometricPrecision;stroke-linecap:round;stroke-linejoin:round;stroke-width:15;stroke:#fff"/>
  <path d="m-856.63 1240.1c205.01-48.298 382.92-212.23 382.92-212.23" style="clip-rule:evenodd;fill:none;image-rendering:optimizeQuality;shape-rendering:geometricPrecision;stroke-linecap:round;stroke-linejoin:round;stroke-width:15;stroke:#9ec4db"/>
  <path d="m-897.16 1219.7c242.05-68.732 439.12-247.55 439.12-247.55" style="clip-rule:evenodd;fill:none;image-rendering:optimizeQuality;shape-rendering:geometricPrecision;stroke-linecap:round;stroke-linejoin:round;stroke-width:15;stroke:#fff"/>
  <path d="m-945.32 1193.6c254.87-61.453 476.05-270.03 476.05-270.03" style="clip-rule:evenodd;fill:none;image-rendering:optimizeQuality;shape-rendering:geometricPrecision;stroke-linecap:round;stroke-linejoin:round;stroke-width:15;stroke:#9ec4db"/>
  <path d="m-980.66 1163.5c278.34-79.432 504.95-286.09 504.95-286.09" style="clip-rule:evenodd;fill:none;image-rendering:optimizeQuality;shape-rendering:geometricPrecision;stroke-linecap:round;stroke-linejoin:round;stroke-width:15;stroke:#fff"/>
  <path d="m-1010.4 1122.5c274.64-66.204 512.98-290.91 512.98-290.91" style="clip-rule:evenodd;fill:none;image-rendering:optimizeQuality;shape-rendering:geometricPrecision;stroke-linecap:round;stroke-linejoin:round;stroke-width:15;stroke:#9ec4db"/>
  <path d="m-1036.1 1077.6c287.19-79.431 521.01-286.09 521.01-286.09" style="clip-rule:evenodd;fill:none;image-rendering:optimizeQuality;shape-rendering:geometricPrecision;stroke-linecap:round;stroke-linejoin:round;stroke-width:15;stroke:#fff"/>
  <path d="m-1052.9 1032.6c272.92-63.646 509.77-279.67 509.77-279.67" style="clip-rule:evenodd;fill:none;image-rendering:optimizeQuality;shape-rendering:geometricPrecision;stroke-linecap:round;stroke-linejoin:round;stroke-width:15;stroke:#9ec4db"/>
  <path d="m-1060.1 986.43c263.29-72.298 477.65-260.4 477.65-260.4" style="clip-rule:evenodd;fill:none;image-rendering:optimizeQuality;shape-rendering:geometricPrecision;stroke-linecap:round;stroke-linejoin:round;stroke-width:15;stroke:#fff"/>
  <path d="m-1057.3 938.56c229.01-75.784 440.61-244.88 440.61-244.88" style="clip-rule:evenodd;fill:none;image-rendering:optimizeQuality;shape-rendering:geometricPrecision;stroke-linecap:round;stroke-linejoin:round;stroke-width:15;stroke:#9ec4db"/>
  <path d="m-1056.1 888.51c207.31-69.896 387.74-217.04 387.74-217.04" style="clip-rule:evenodd;fill:none;image-rendering:optimizeQuality;shape-rendering:geometricPrecision;stroke-linecap:round;stroke-linejoin:round;stroke-width:15;stroke:#fff"/>
  <path d="m-1034.4 828.95c157.24-50.939 302.52-164.6 302.52-164.6" style="clip-rule:evenodd;fill:none;image-rendering:optimizeQuality;shape-rendering:geometricPrecision;stroke-linecap:round;stroke-linejoin:round;stroke-width:15;stroke:#9ec4db"/>
  <path d="m-1003.5 772.89c106.86-35.25 199.87-109.46 199.87-109.46" style="clip-rule:evenodd;fill:none;image-rendering:optimizeQuality;shape-rendering:geometricPrecision;stroke-linecap:round;stroke-linejoin:round;stroke-width:15;stroke:#fff"/>
  <path d="m-950.96 710.94c52.082-16.651 100.2-53.806 100.2-53.806" style="clip-rule:evenodd;fill:none;image-rendering:optimizeQuality;shape-rendering:geometricPrecision;stroke-linecap:round;stroke-linejoin:round;stroke-width:15;stroke:#9ec4db"/>
  <g transform="translate(-30.656 501.85)">
   <path transform="matrix(.99276 0 0 .99276 -96.067 -974.9)" d="m-642.75 1107.4a332.64 332.64 0 0 0-332.64 332.64 332.64 332.64 0 0 0 332.64 332.64 332.64 332.64 0 0 0 332.64-332.64 332.64 332.64 0 0 0-332.64-332.64zm0.20554 19.998a312.57 312.57 0 0 1 0.66511 0 312.57 312.57 0 0 1 312.57 312.57 312.57 312.57 0 0 1-312.57 312.57 312.57 312.57 0 0 1-312.57-312.57 312.57 312.57 0 0 1 311.9-312.57z" style="clip-rule:evenodd;fill-rule:evenodd;fill:#182838;image-rendering:optimizeQuality;shape-rendering:geometricPrecision"/>
   <g transform="matrix(1.0072 0 0 1.0072 -23.745 -1377)" style="stroke-width:.99281">
    <path d="m-703.32 1488.4a332.64 332.64 0 0 0-332.64 332.64 332.64 332.64 0 0 0 332.64 332.64 332.64 332.64 0 0 0 332.64-332.64 332.64 332.64 0 0 0-332.64-332.64zm0.20554 19.998a312.57 312.57 0 0 1 0.66511 0 312.57 312.57 0 0 1 312.57 312.57 312.57 312.57 0 0 1-312.57 312.57 312.57 312.57 0 0 1-312.57-312.57 312.57 312.57 0 0 1 311.9-312.57z" style="clip-rule:evenodd;fill-rule:evenodd;fill:#fff;image-rendering:optimizeQuality;shape-rendering:geometricPrecision;stroke-width:0"/>
   </g>
  </g>
 </g>
 <g transform="translate(1153.9 -567.69)">
  <g transform="translate(-746.93 -254.37)">
   <g transform="translate(445.42 392.1)">
    <g transform="translate(-62.622 -40.142)">
     <path transform="translate(316.32 -77.074)" d="m-576.51 1111.1 112.4 175.02" style="clip-rule:evenodd;fill:none;image-rendering:optimizeQuality;paint-order:normal;shape-rendering:geometricPrecision;stroke-linecap:round;stroke-width:110;stroke:#182838"/>
     <path transform="translate(316.32 -77.074)" d="m-576.51 1111.1 112.4 175.02" style="clip-rule:evenodd;fill:none;image-rendering:optimizeQuality;paint-order:normal;shape-rendering:geometricPrecision;stroke-linecap:round;stroke-width:80;stroke:#9dc4db"/>
     <path transform="translate(316.32 -77.074)" d="m-579.32 1114.9 109.82 170.33" style="clip-rule:evenodd;fill:none;image-rendering:optimizeQuality;paint-order:normal;shape-rendering:geometricPrecision;stroke-linecap:round;stroke-width:70;stroke:#fff"/>
     <path d="m-288.1 1076.6 75.641-48.46" style="fill:none;stroke-width:15;stroke:#182838"/>
     <path d="m-268.58 1101.1 75.641-48.46" style="clip-rule:evenodd;fill:none;image-rendering:optimizeQuality;shape-rendering:geometricPrecision;stroke-width:15;stroke:#182838"/>
    </g>
   </g>
   <g transform="translate(143.55 226.72)">
    <circle cx="-175.52" cy="929.59" r="267.16" style="clip-rule:evenodd;fill-rule:evenodd;fill:#182838;image-rendering:optimizeQuality;shape-rendering:geometricPrecision;stroke-width:0"/>
    <g transform="matrix(1.2024 0 0 1.2024 201.42 621.18)" style="stroke-width:.83166">
     <g transform="translate(-533.74 -114.51)" style="stroke-width:.83166">
      <g style="stroke-width:.83166">
       <circle cx="217.38" cy="364.76" r="210.21" style="clip-rule:evenodd;fill-rule:evenodd;fill:#fff;image-rendering:optimizeQuality;shape-rendering:geometricPrecision;stroke-width:0"/>
       <circle cx="217.11" cy="363.34" r="185.8" style="fill:#9ec4db;stroke-width:0"/>
       <circle cx="217.25" cy="363.3" r="169.8" style="clip-rule:evenodd;fill-rule:evenodd;fill:#182838;image-rendering:optimizeQuality;shape-rendering:geometricPrecision;stroke-width:0"/>
       <path d="m49.097 341.3c10.885-70.002 54.85-116 114.09-136.66" style="fill:none;stroke-linecap:round;stroke-width:12.475;stroke:#f7f8fa"/>
       <path d="m394.85 252.2c12.726 28.074 19.31 58.542 19.311 89.365 1.2e-4 39.769-10.725 77.033-29.44 109.06-37.543 64.243-107.24 107.4-187.02 107.4-42.689-1e-3 -84.424-12.625-119.96-36.283 38.429 33.986 87.959 52.746 139.26 52.746 116.1-4e-4 210.21-94.117 210.21-210.21-1.8e-4 -39.663-11.221-78.516-32.367-112.07z" style="clip-rule:evenodd;fill-rule:evenodd;fill:#9ec4db;image-rendering:optimizeQuality;shape-rendering:geometricPrecision;stroke-width:0"/>
      </g>
      <g transform="translate(-188.4 25.146)" style="clip-rule:evenodd;fill-rule:evenodd;image-rendering:optimizeQuality;shape-rendering:geometricPrecision;stroke-width:.83166">
       <g style="stroke-width:.83166">
        <path d="m399.25 202.63c-2.3573 0.65595-4.2022 1.9679-5.4526 3.8332-0.38947 0.59446-6.2316 12.34-13.017 26.095-6.7645 13.755-14.738 29.948-17.711 35.975l-5.4116 10.967-4.5097 0.656c-75.271 11.049-75.168 11.028-76.296 11.418-2.0499 0.7174-4.0792 2.5213-5.0836 4.4891-1.5579 3.0338-1.4144 6.3341 0.36897 9.3064 0.47147 0.7584 9.1834 9.3678 29.723 29.313 26.033 25.275 29.067 28.288 28.964 28.76-0.041 0.287-0.79944 4.5712-1.6399 9.5319-0.86094 4.9606-2.2753 13.222-3.1773 18.346-0.88144 5.1246-2.5418 14.718-3.6897 21.318-1.1479 6.6005-2.7673 15.948-3.6078 20.806-1.8449 10.495-1.8859 11.315-0.61496 13.939 2.0909 4.4277 7.3385 6.5596 11.766 4.7762 0.63545-0.2665 17.137-8.8554 36.651-19.084l35.483-18.572 16.481 8.6094c9.0604 4.7352 25.07 13.119 35.545 18.592 10.495 5.4936 19.535 10.147 20.089 10.331 1.2914 0.451 4.1407 0.4715 5.4936 0.062 2.2753-0.6764 4.6737-2.6443 5.6781-4.6122 0.59446-1.1684 1.0249-2.9927 1.0249-4.3457 0-0.6559-0.84044-5.9856-1.8449-11.848-2.8288-16.296-5.3501-30.871-7.605-43.97-1.1479-6.539-2.5418-14.677-3.1363-18.08l-1.0659-6.2111 29.149-28.534c19.781-19.351 29.354-28.862 29.784-29.559 0.88143-1.4554 1.2709-2.6648 1.3939-4.3252 0.32798-4.2637-2.5828-8.4659-6.6415-9.5933-0.65596-0.1845-7.769-1.2504-15.784-2.3983-8.0354-1.1275-21.196-2.9723-29.21-4.0998-8.0354-1.1479-17.793-2.5213-21.687-3.0747-3.8947-0.533-8.5889-1.189-10.454-1.4554-1.8654-0.246-3.4848-0.5535-3.6282-0.6765-0.12299-0.123-8.1789-16.378-17.895-36.098-9.6958-19.74-17.977-36.364-18.408-36.979-0.90194-1.3324-2.6853-2.6853-4.3047-3.3003-1.5169-0.59446-4.2432-0.73795-5.7191-0.30748z" style="fill:#fff"/>
        <path d="m402.75 465.88c-0.2699 0.0605-0.44647 0.12864-0.63817 0.24467-0.29765 0.1791-0.60791 0.54233-0.72898 0.85258-0.0479 0.12109-1.1074 3.317-2.5905 7.817-0.39854 1.2057-0.73655 2.2071-0.75421 2.2248-0.0151 0.0176-0.30521 0.12107-0.64574 0.23206-0.34052 0.11099-2.5476 0.82484-4.9061 1.5917-2.3585 0.7643-4.3588 1.4226-4.4445 1.463-0.54484 0.25226-0.90303 0.71637-1.067 1.3848-0.0757 0.31782-0.0706 0.42628 0.0555 0.87276 0.14378 0.507 0.48431 0.90806 0.96609 1.1376 0.1463 0.0681 3.6222 1.1956 9.169 2.9739 0.50701 0.16143 0.93582 0.30774 0.95348 0.32539 0.0151 0.015 0.27242 0.77942 0.57007 1.6926 2.3332 7.199 2.6763 8.2382 2.7545 8.3871 0.18666 0.35568 0.46413 0.61548 0.8551 0.80718 0.25477 0.1236 0.62809 0.22701 0.81727 0.22701 0.15891 0 0.60538-0.12359 0.79709-0.21944 0.23206-0.11603 0.38088-0.22701 0.55241-0.41116 0.21693-0.23709 0.32539-0.44395 0.49187-0.94589 0.13874-0.41369 2.2878-7.0351 2.8655-8.8285 0.13621-0.4162 0.2598-0.77186 0.27494-0.78951 0.0176-0.0176 0.80213-0.28252 1.7455-0.58773 7.1738-2.3257 8.1828-2.6586 8.3366-2.7368 0.47927-0.24973 0.84754-0.75673 0.97871-1.3419 0.0631-0.2825 0.0656-0.36323 0.0151-0.61042-0.14126-0.68611-0.4717-1.1351-1.0342-1.4025-0.0959-0.0479-1.2764-0.44142-2.6233-0.87781-6.132-1.9902-7.4058-2.4039-7.4185-2.419-0.0177-0.0176-0.41115-1.2183-2.1037-6.4372-0.61043-1.8868-1.1502-3.5112-1.1956-3.6071-0.26737-0.56248-0.71636-0.89294-1.4025-1.0342-0.2371-0.0479-0.38593-0.0454-0.64574 0.015z" style="clip-rule:evenodd;fill-rule:evenodd;fill:#fff;image-rendering:optimizeQuality;shape-rendering:geometricPrecision"/>
        <path d="m541.27 357.45c-0.2699 0.0605-0.44647 0.12864-0.63817 0.24467-0.29765 0.1791-0.60791 0.54233-0.72898 0.85258-0.0479 0.12109-1.1074 3.317-2.5905 7.817-0.39854 1.2057-0.73655 2.2071-0.75421 2.2248-0.0151 0.0176-0.30521 0.12107-0.64574 0.23206-0.34052 0.11099-2.5476 0.82484-4.9061 1.5917-2.3585 0.7643-4.3588 1.4226-4.4445 1.463-0.54484 0.25226-0.90303 0.71637-1.067 1.3848-0.0757 0.31782-0.0706 0.42628 0.0555 0.87276 0.14378 0.507 0.48431 0.90806 0.96609 1.1376 0.1463 0.0681 3.6222 1.1956 9.169 2.9739 0.50701 0.16143 0.93582 0.30774 0.95348 0.32539 0.0151 0.015 0.27242 0.77942 0.57007 1.6926 2.3332 7.199 2.6763 8.2382 2.7545 8.3871 0.18666 0.35568 0.46413 0.61548 0.8551 0.80718 0.25477 0.1236 0.62809 0.22701 0.81727 0.22701 0.15891 0 0.60538-0.12359 0.79709-0.21944 0.23206-0.11603 0.38088-0.22701 0.55241-0.41116 0.21693-0.23709 0.32539-0.44395 0.49187-0.94589 0.13874-0.41369 2.2878-7.0351 2.8655-8.8285 0.13621-0.4162 0.2598-0.77186 0.27494-0.78951 0.0176-0.0176 0.80213-0.28252 1.7455-0.58773 7.1738-2.3257 8.1828-2.6586 8.3366-2.7368 0.47927-0.24973 0.84754-0.75673 0.97871-1.3419 0.0631-0.2825 0.0656-0.36323 0.0151-0.61042-0.14126-0.68611-0.4717-1.1351-1.0342-1.4025-0.0959-0.0479-1.2764-0.44142-2.6233-0.87781-6.132-1.9902-7.4058-2.4039-7.4185-2.419-0.0177-0.0176-0.41115-1.2183-2.1037-6.4372-0.61043-1.8868-1.1502-3.5112-1.1956-3.6071-0.26737-0.56248-0.71636-0.89294-1.4025-1.0342-0.2371-0.0479-0.38593-0.0454-0.64574 0.015z" style="clip-rule:evenodd;fill-rule:evenodd;fill:#fff;image-rendering:optimizeQuality;shape-rendering:geometricPrecision"/>
        <path d="m268.77 353.48c-0.2699 0.0605-0.44647 0.12864-0.63817 0.24467-0.29765 0.1791-0.60791 0.54233-0.72898 0.85258-0.0479 0.12109-1.1074 3.317-2.5905 7.817-0.39854 1.2057-0.73655 2.2071-0.75421 2.2248-0.0151 0.0176-0.30521 0.12107-0.64574 0.23206-0.34052 0.11099-2.5476 0.82484-4.9061 1.5917-2.3585 0.7643-4.3588 1.4226-4.4445 1.463-0.54484 0.25226-0.90303 0.71637-1.067 1.3848-0.0757 0.31782-0.0706 0.42628 0.0555 0.87276 0.14378 0.507 0.48431 0.90806 0.96609 1.1376 0.1463 0.0681 3.6222 1.1956 9.169 2.9739 0.50701 0.16143 0.93582 0.30774 0.95348 0.32539 0.0151 0.015 0.27242 0.77942 0.57007 1.6926 2.3332 7.199 2.6763 8.2382 2.7545 8.3871 0.18666 0.35568 0.46413 0.61548 0.8551 0.80718 0.25477 0.1236 0.62809 0.22701 0.81727 0.22701 0.15891 0 0.60538-0.12359 0.79709-0.21944 0.23206-0.11603 0.38088-0.22701 0.55241-0.41116 0.21693-0.23709 0.32539-0.44395 0.49187-0.94589 0.13874-0.41369 2.2878-7.0351 2.8655-8.8285 0.13621-0.4162 0.2598-0.77186 0.27494-0.78951 0.0176-0.0176 0.80213-0.28252 1.7455-0.58773 7.1738-2.3257 8.1828-2.6586 8.3366-2.7368 0.47927-0.24973 0.84754-0.75673 0.97871-1.3419 0.0631-0.2825 0.0656-0.36323 0.0151-0.61042-0.14126-0.68611-0.4717-1.1351-1.0342-1.4025-0.0959-0.0479-1.2764-0.44142-2.6233-0.87781-6.132-1.9902-7.4058-2.4039-7.4185-2.419-0.0177-0.0176-0.41115-1.2183-2.1037-6.4372-0.61043-1.8868-1.1502-3.5112-1.1956-3.6071-0.26737-0.56248-0.71636-0.89294-1.4025-1.0342-0.2371-0.0479-0.38593-0.0454-0.64574 0.015z" style="clip-rule:evenodd;fill-rule:evenodd;fill:#fff;image-rendering:optimizeQuality;shape-rendering:geometricPrecision"/>
        <path d="m323.27 232.56c-0.2699 0.0605-0.44647 0.12864-0.63817 0.24467-0.29765 0.1791-0.60791 0.54233-0.72898 0.85258-0.0479 0.12109-1.1074 3.317-2.5905 7.817-0.39854 1.2057-0.73655 2.2071-0.75421 2.2248-0.0151 0.0176-0.30521 0.12107-0.64574 0.23206-0.34052 0.11099-2.5476 0.82484-4.9061 1.5917-2.3585 0.7643-4.3588 1.4226-4.4445 1.463-0.54484 0.25226-0.90303 0.71637-1.067 1.3848-0.0757 0.31782-0.0706 0.42628 0.0555 0.87276 0.14378 0.507 0.48431 0.90806 0.96609 1.1376 0.1463 0.0681 3.6222 1.1956 9.169 2.9739 0.50701 0.16143 0.93582 0.30774 0.95348 0.32539 0.0151 0.015 0.27242 0.77942 0.57007 1.6926 2.3332 7.199 2.6763 8.2382 2.7545 8.3871 0.18666 0.35568 0.46413 0.61548 0.8551 0.80718 0.25477 0.1236 0.62809 0.22701 0.81727 0.22701 0.15891 0 0.60538-0.12359 0.79709-0.21944 0.23206-0.11603 0.38088-0.22701 0.55241-0.41116 0.21693-0.23709 0.32539-0.44395 0.49187-0.94589 0.13874-0.41369 2.2878-7.0351 2.8655-8.8285 0.13621-0.4162 0.2598-0.77186 0.27494-0.78951 0.0176-0.0176 0.80213-0.28252 1.7455-0.58773 7.1738-2.3257 8.1828-2.6586 8.3366-2.7368 0.47927-0.24973 0.84754-0.75673 0.97871-1.3419 0.0631-0.2825 0.0656-0.36323 0.0151-0.61042-0.14126-0.68611-0.4717-1.1351-1.0342-1.4025-0.0959-0.0479-1.2764-0.44142-2.6233-0.87781-6.132-1.9902-7.4058-2.4039-7.4185-2.419-0.0177-0.0176-0.41115-1.2183-2.1037-6.4372-0.61043-1.8868-1.1502-3.5112-1.1956-3.6071-0.26737-0.56248-0.71636-0.89294-1.4025-1.0342-0.2371-0.0479-0.38593-0.0454-0.64574 0.015z" style="clip-rule:evenodd;fill-rule:evenodd;fill:#fff;image-rendering:optimizeQuality;shape-rendering:geometricPrecision"/>
        <path d="m486.2 228.59c-0.2699 0.0605-0.44647 0.12864-0.63817 0.24467-0.29765 0.1791-0.60791 0.54233-0.72898 0.85258-0.0479 0.12109-1.1074 3.317-2.5905 7.817-0.39854 1.2057-0.73655 2.2071-0.75421 2.2248-0.0151 0.0176-0.30521 0.12107-0.64574 0.23206-0.34052 0.11099-2.5476 0.82484-4.9061 1.5917-2.3585 0.7643-4.3588 1.4226-4.4445 1.463-0.54484 0.25226-0.90303 0.71637-1.067 1.3848-0.0757 0.31782-0.0706 0.42628 0.0555 0.87276 0.14378 0.507 0.48431 0.90806 0.96609 1.1376 0.1463 0.0681 3.6222 1.1956 9.169 2.9739 0.50701 0.16143 0.93582 0.30774 0.95348 0.32539 0.0151 0.015 0.27242 0.77942 0.57007 1.6926 2.3332 7.199 2.6763 8.2382 2.7545 8.3871 0.18666 0.35568 0.46413 0.61548 0.8551 0.80718 0.25477 0.1236 0.62809 0.22701 0.81727 0.22701 0.15891 0 0.60538-0.12359 0.79709-0.21944 0.23206-0.11603 0.38088-0.22701 0.55241-0.41116 0.21693-0.23709 0.32539-0.44395 0.49187-0.94589 0.13874-0.41369 2.2878-7.0351 2.8655-8.8285 0.13621-0.4162 0.2598-0.77186 0.27494-0.78951 0.0176-0.0176 0.80213-0.28252 1.7455-0.58773 7.1738-2.3257 8.1828-2.6586 8.3366-2.7368 0.47927-0.24973 0.84754-0.75673 0.97871-1.3419 0.0631-0.2825 0.0656-0.36323 0.0151-0.61042-0.14126-0.68611-0.4717-1.1351-1.0342-1.4025-0.0959-0.0479-1.2764-0.44142-2.6233-0.87781-6.132-1.9902-7.4058-2.4039-7.4185-2.419-0.0177-0.0176-0.41115-1.2183-2.1037-6.4372-0.61043-1.8868-1.1502-3.5112-1.1956-3.6071-0.26737-0.56248-0.71636-0.89294-1.4025-1.0342-0.2371-0.0479-0.38593-0.0454-0.64574 0.015z" style="clip-rule:evenodd;fill-rule:evenodd;fill:#fff;image-rendering:optimizeQuality;shape-rendering:geometricPrecision"/>
        <circle cx="284.42" cy="428.61" r="6.6056" style="clip-rule:evenodd;fill-rule:evenodd;fill:#fff;image-rendering:optimizeQuality;shape-rendering:geometricPrecision;stroke-width:0"/>
        <circle cx="521.15" cy="431.45" r="6.6056" style="clip-rule:evenodd;fill-rule:evenodd;fill:#fff;image-rendering:optimizeQuality;shape-rendering:geometricPrecision;stroke-width:0"/>
       </g>
       <path d="m329.87 452.16c0.63545-0.2665 17.137-8.8554 36.651-19.084l35.483-18.572 16.481 8.6094c9.0604 4.7352 25.07 13.119 35.545 18.592 10.495 5.4936 19.535 10.147 20.089 10.331 1.2914 0.451 4.1407 0.4715 5.4936 0.062 2.2753-0.6764 4.6737-2.6443 5.6781-4.6122 0.59446-1.1684 1.0249-2.9927 1.0249-4.3457 0-0.6559-0.84044-5.9856-1.8449-11.848-2.8288-16.296-5.3501-30.871-7.605-43.97-1.1479-6.539-2.5418-14.677-3.1363-18.08l-1.0659-6.2111 29.149-28.534c19.781-19.351 29.354-28.862 29.784-29.559-51.675 25.268-60.941 32.569-78.56 46.06-2.7436 2.1007-5.8054 4.2946-5.5191 8.074 1.0506 13.865 3.6032 26.705 5.4958 37.579 1.9319 11.1 5.3415 10.424-6.608 6.0087-9.665-3.5713-24.245-8.1567-42.345-14.104-2.1858-0.71825-6.456 0.72487-7.9601 1.879-14.453 11.09-36.843 29.372-66.231 61.724z" style="clip-rule:evenodd;fill-rule:evenodd;fill:#9ec4db;image-rendering:optimizeQuality;shape-rendering:geometricPrecision"/>
      </g>
     </g>
    </g>
   </g>
  </g>
  <g transform="translate(-900.17 438.28)">
   <circle transform="translate(-533.74 -114.51)" cx="410.1" cy="768.03" r="29.685" style="clip-rule:evenodd;fill-rule:evenodd;fill:#9ec4db;image-rendering:optimizeQuality;shape-rendering:geometricPrecision;stroke-width:0"/>
   <circle transform="translate(-533.74 -114.51)" cx="414.45" cy="762" r="32.523" style="clip-rule:evenodd;fill-rule:evenodd;fill:#182838;image-rendering:optimizeQuality;shape-rendering:geometricPrecision;stroke-width:0"/>
   <path d="m-120.02 620.17c-0.42653 0.0956-0.70557 0.20329-1.0085 0.38665-0.47039 0.28304-0.96069 0.85706-1.152 1.3474-0.0757 0.19136-1.75 5.2419-4.0939 12.353-0.62982 1.9054-1.164 3.4879-1.1919 3.5158-0.0239 0.0278-0.48233 0.19133-1.0205 0.36673-0.53812 0.1754-4.0261 1.3035-7.7532 2.5153-3.7271 1.2078-6.8882 2.2482-7.0238 2.312-0.86101 0.39864-1.4271 1.1321-1.6862 2.1885-0.11963 0.50226-0.11157 0.67366 0.0877 1.3792 0.22722 0.80122 0.76536 1.435 1.5267 1.7978 0.23119 0.10762 5.7242 1.8895 14.49 4.6998 0.80124 0.25511 1.4789 0.48633 1.5068 0.51422 0.0239 0.0237 0.43051 1.2317 0.90088 2.6748 3.6873 11.377 4.2294 13.019 4.353 13.254 0.29498 0.56208 0.73347 0.97265 1.3513 1.2756 0.40261 0.19534 0.99257 0.35875 1.2915 0.35875 0.25112 0 0.9567-0.19531 1.2597-0.34678 0.36672-0.18336 0.60191-0.35875 0.87297-0.64976 0.34283-0.37468 0.51422-0.70158 0.77731-1.4948 0.21926-0.65376 3.6155-11.118 4.5284-13.952 0.21526-0.65773 0.41057-1.2198 0.4345-1.2477 0.0278-0.0278 1.2676-0.44647 2.7585-0.9288 11.337-3.6753 12.931-4.2015 13.174-4.3251 0.7574-0.39465 1.3394-1.1959 1.5467-2.1207 0.0997-0.44644 0.10368-0.57402 0.0239-0.96465-0.22323-1.0843-0.74544-1.7938-1.6344-2.2164-0.15154-0.0757-2.017-0.69758-4.1457-1.3872-9.6905-3.1451-11.704-3.7989-11.724-3.8228-0.028-0.0278-0.64975-1.9254-3.3245-10.173-0.96467-2.9817-1.8177-5.5488-1.8895-5.7003-0.42254-0.8889-1.1321-1.4111-2.2164-1.6344-0.3747-0.0757-0.60989-0.0717-1.0205 0.0237z" style="clip-rule:evenodd;fill-rule:evenodd;fill:#fff;image-rendering:optimizeQuality;shape-rendering:geometricPrecision"/>
  </g>
 </g>
</svg>
